<svg xmlns="http://www.w3.org/2000/svg" version="1.1" xmlns:xlink="http://www.w3.org/1999/xlink" xmlns:svgjs="http://svgjs.dev/svgjs" width="1000" height="1000" viewBox="0 0 1000 1000"><rect width="1000" height="1000" fill="#000000"></rect><g transform="matrix(0.7,0,0,0.7,149.5764237192201,357.22122890748267)"><svg viewBox="0 0 396 162" data-background-color="#ffffff" preserveAspectRatio="xMidYMid meet" height="409" width="1000" xmlns="http://www.w3.org/2000/svg" xmlns:xlink="http://www.w3.org/1999/xlink"><g id="tight-bounds" transform="matrix(1,0,0,1,0.2400748025353323,-0.21005404308736786)"><svg viewBox="0 0 395.52 162.42000687153833" height="162.42000687153833" width="395.52"><g><svg viewBox="0 0 395.52 162.42000687153833" height="162.42000687153833" width="395.52"><g transform="matrix(1,0,0,1,0,83.60806401754446)"><svg viewBox="0 0 395.52 78.81194285399387" height="78.81194285399387" width="395.52"><g id="textblocktransform"><svg viewBox="0 0 395.52 78.81194285399387" height="78.81194285399387" width="395.52" id="textblock"><g><svg viewBox="0 0 395.52 78.81194285399387" height="78.81194285399387" width="395.52"><g transform="matrix(1,0,0,1,0,0)"><svg width="395.52" viewBox="0.2822723388671875 -20.103668212890625 238.49354553222656 47.522605895996094" height="78.81194285399387" data-palette-color="#471aa0"><path d="M9.841-19.645l7.199 1.481c0.362 1.184 0.761 2.634 1.198 4.351 0.436 1.716 0.878 3.57 1.327 5.561 0.448 1.991 0.881 4.023 1.297 6.097 0.412 2.065 0.801 4.011 1.168 5.835v0c1.051-1.533 2.176-3.166 3.377-4.9 1.196-1.741 2.392-3.438 3.59-5.091 1.198-1.653 2.336-3.181 3.414-4.586 1.079-1.405 2.018-2.58 2.818-3.524v0l6.867 1.413c-0.137 2.286-0.352 4.835-0.645 7.647-0.294 2.819-0.643 5.738-1.047 8.759-0.405 3.027-0.828 6.057-1.268 9.09-0.434 3.035-0.861 5.887-1.281 8.558v0l-7.346-1.512c0.573-3.279 1.172-6.851 1.797-10.717 0.633-3.872 1.188-7.79 1.663-11.756v0c-0.859 1.232-1.811 2.598-2.854 4.098-1.05 1.499-2.091 3-3.122 4.504-1.029 1.497-2.022 2.929-2.977 4.298-0.955 1.369-1.768 2.539-2.438 3.511v0l-5.269-1.085c-0.232-1.157-0.516-2.553-0.854-4.188-0.331-1.634-0.677-3.342-1.038-5.124-0.354-1.788-0.714-3.577-1.081-5.368-0.373-1.792-0.711-3.424-1.014-4.895v0c-1.122 3.832-2.16 7.652-3.113 11.458-0.952 3.799-1.809 7.319-2.571 10.558v0l-7.356-1.513c0.675-2.618 1.409-5.407 2.202-8.368 0.793-2.961 1.601-5.912 2.424-8.853 0.822-2.935 1.654-5.755 2.496-8.461 0.841-2.699 1.654-5.125 2.437-7.278zM54.252 5.78v0c-0.199 1.668-0.175 3.195 0.069 4.58 0.251 1.386 0.703 2.608 1.356 3.666 0.653 1.058 1.504 1.915 2.554 2.57 1.05 0.655 2.293 1.068 3.73 1.239v0c1.403 0.167 2.702 0.056 3.897-0.332 1.188-0.389 2.223-1.021 3.106-1.896 0.883-0.875 1.609-1.957 2.178-3.245 0.57-1.288 0.954-2.767 1.152-4.435v0c0.199-1.668 0.173-3.205-0.075-4.611-0.249-1.406-0.7-2.635-1.354-3.686-0.653-1.058-1.511-1.915-2.574-2.572-1.07-0.658-2.306-1.07-3.71-1.237v0c-1.437-0.171-2.743-0.054-3.919 0.349-1.177 0.41-2.207 1.053-3.089 1.928-0.882 0.869-1.609 1.957-2.181 3.265-0.565 1.309-0.945 2.781-1.14 4.417zM80.179 8.865v0c-0.346 2.906-1.08 5.41-2.203 7.512-1.13 2.108-2.535 3.814-4.215 5.118-1.68 1.311-3.604 2.22-5.772 2.727-2.161 0.501-4.436 0.61-6.827 0.326v0c-2.317-0.276-4.46-0.91-6.43-1.903-1.969-1-3.636-2.336-5.001-4.009-1.359-1.666-2.348-3.656-2.965-5.973-0.618-2.309-0.754-4.917-0.409-7.823v0c0.347-2.913 1.108-5.417 2.284-7.512 1.176-2.096 2.631-3.802 4.366-5.12 1.728-1.318 3.66-2.233 5.795-2.745 2.128-0.505 4.321-0.624 6.578-0.355v0c2.324 0.277 4.47 0.911 6.44 1.904 1.969 1 3.632 2.342 4.989 4.028 1.357 1.685 2.345 3.683 2.963 5.992 0.618 2.309 0.754 4.92 0.407 7.833zM94.456-1.294l-0.958 21.599c0.358 0.049 0.777 0.091 1.256 0.126 0.479 0.041 1.044 0.076 1.697 0.105v0c3.85 0.171 6.746-0.672 8.69-2.527 1.944-1.862 2.993-4.502 3.144-7.919v0c0.159-3.583-0.61-6.337-2.306-8.26-1.69-1.917-4.46-2.961-8.309-3.131v0c-0.526-0.023-1.069-0.041-1.629-0.053-0.56-0.005-1.088 0.015-1.585 0.06zM116.227 10.443v0c-0.131 2.957-0.705 5.517-1.722 7.681-1.024 2.163-2.413 3.93-4.169 5.301-1.756 1.37-3.869 2.364-6.338 2.981-2.463 0.611-5.206 0.85-8.23 0.716v0c-1.379-0.061-2.988-0.189-4.828-0.384-1.833-0.195-3.631-0.511-5.393-0.95v0l1.478-33.297c1.793-0.247 3.651-0.389 5.574-0.424 1.93-0.028 3.587-0.011 4.972 0.051v0c2.924 0.13 5.563 0.577 7.919 1.342 2.355 0.765 4.357 1.892 6.006 3.38 1.642 1.488 2.877 3.354 3.705 5.6 0.821 2.245 1.163 4.913 1.026 8.003zM122.541 27.419l-0.215-34.209 7.7-0.049 0.214 34.21zM150.197 26.767v0c-1.87 0.107-3.737 0.156-5.601 0.149-1.863-0.007-3.809-0.167-5.836-0.478v0l-1.888-33.127c1.561-0.383 3.272-0.704 5.134-0.963 1.869-0.253 3.608-0.426 5.219-0.518v0c2.17-0.124 4.175-0.081 6.017 0.128 1.842 0.209 3.439 0.652 4.793 1.329 1.361 0.684 2.446 1.62 3.255 2.81 0.809 1.189 1.265 2.689 1.368 4.499v0c0.155 2.729-1.036 4.957-3.575 6.684v0c2.216 0.695 3.758 1.726 4.623 3.092 0.873 1.373 1.36 2.944 1.461 4.715v0c0.204 3.581-0.95 6.351-3.463 8.31-2.506 1.952-6.342 3.076-11.507 3.37zM150.262 11.389l-4.832 0.275 0.503 8.826c0.563 0.035 1.175 0.05 1.835 0.045 0.66-0.011 1.383-0.039 2.169-0.083v0c2.303-0.131 4.141-0.563 5.515-1.296 1.373-0.739 2.01-1.998 1.909-3.775v0c-0.09-1.577-0.743-2.669-1.96-3.273-1.223-0.605-2.936-0.844-5.139-0.719zM144.672-1.644l0.423 7.438 3.754-0.214c2.363-0.135 4.036-0.534 5.02-1.198 0.984-0.664 1.437-1.671 1.361-3.022v0c-0.079-1.378-0.66-2.316-1.743-2.815-1.083-0.499-2.644-0.691-4.681-0.575v0c-0.659 0.038-1.364 0.088-2.114 0.15-0.758 0.057-1.431 0.135-2.02 0.236zM177.005 6.68v0c0.219 1.666 0.617 3.14 1.196 4.422 0.585 1.281 1.324 2.354 2.217 3.219 0.893 0.864 1.93 1.485 3.109 1.861 1.179 0.376 2.486 0.471 3.92 0.282v0c1.401-0.184 2.633-0.611 3.695-1.282 1.055-0.67 1.903-1.537 2.543-2.603 0.64-1.066 1.077-2.293 1.312-3.682 0.235-1.389 0.243-2.916 0.024-4.582v0c-0.219-1.666-0.622-3.149-1.21-4.45-0.588-1.301-1.328-2.381-2.22-3.239-0.893-0.864-1.936-1.484-3.129-1.859-1.199-0.374-2.499-0.469-3.9-0.284v0c-1.434 0.188-2.672 0.623-3.712 1.304-1.039 0.688-1.879 1.565-2.519 2.63-0.641 1.059-1.077 2.293-1.309 3.702-0.225 1.408-0.231 2.928-0.017 4.561zM202.893 3.282v0c0.381 2.902 0.286 5.51-0.284 7.823-0.576 2.321-1.517 4.321-2.824 5.999-1.305 1.684-2.946 3.039-4.922 4.065-1.971 1.018-4.149 1.684-6.536 1.998v0c-2.313 0.304-4.547 0.217-6.701-0.261-2.155-0.484-4.1-1.368-5.835-2.653-1.728-1.279-3.176-2.965-4.345-5.057-1.168-2.086-1.942-4.579-2.323-7.482v0c-0.382-2.908-0.261-5.523 0.362-7.843 0.623-2.321 1.613-4.333 2.969-6.038 1.35-1.703 2.996-3.066 4.94-4.088 1.938-1.014 4.034-1.669 6.288-1.965v0c2.32-0.305 4.557-0.218 6.711 0.259 2.155 0.484 4.097 1.375 5.828 2.674 1.73 1.299 3.18 2.992 4.347 5.078 1.168 2.086 1.943 4.583 2.325 7.491zM238.776 13.293l-9.04 1.863c-1.319-1.675-2.734-3.357-4.246-5.047-1.506-1.691-3.189-3.386-5.051-5.085v0c-0.331 0.674-0.736 1.598-1.215 2.772-0.48 1.174-0.949 2.415-1.408 3.721-0.454 1.298-0.878 2.543-1.273 3.734-0.388 1.189-0.666 2.121-0.833 2.796v0l-8.609 1.774c0.885-2.905 1.973-5.985 3.263-9.239 1.295-3.262 2.773-6.742 4.434-10.44v0l-14.112-13.928 9.138-1.883 8.675 9.096 4.234-11.757 8.609-1.774-7.29 18.431c3.428 2.962 6.37 5.742 8.825 8.34 2.45 2.606 4.416 4.814 5.899 6.626z" opacity="1" transform="matrix(1,0,0,1,0,0)" fill="#ffffff" class="undefined-text-0" data-fill-palette-color="primary" id="text-0"></path></svg></g></svg></g></svg></g></svg></g><g transform="matrix(1,0,0,1,138.98940531475333,0)"><svg viewBox="0 0 117.54118937049331 78.81194285399387" height="78.81194285399387" width="117.54118937049331"><g><svg xmlns="http://www.w3.org/2000/svg" xmlns:xlink="http://www.w3.org/1999/xlink" version="1.1" x="0" y="0" viewBox="4.999077320098877 20.56300163269043 90.00082397460938 60.34599304199219" enable-background="new 0 0 100 100" xml:space="preserve" height="78.81194285399387" width="117.54118937049331" class="icon-icon-0" data-fill-palette-color="accent" id="icon-0"><path d="M94.455 44.581c-0.068-0.212-0.112-0.435-0.124-0.66-0.174-2.529-0.657-4.665-1.033-6.007-0.031-0.101-0.085-0.276-0.129-0.458-1.941-7.555-4.847-11.636-4.876-11.676-0.324-0.448-0.503-0.996-0.505-1.55-0.024-0.31-0.435-3.667-7.451-3.667h-4.541c-3.135 0-5.42 0.683-6.606 1.972-0.659 0.714-1.662 1.016-2.593 0.776-3.737-0.938-8.337-1.826-16.643-1.967-8.218 0.141-12.822 1.029-16.56 1.967-0.938 0.239-1.938-0.062-2.593-0.778-1.184-1.288-3.469-1.97-6.602-1.97h-4.548c-7.021 0-7.429 3.352-7.454 3.734-0.046 0.812-0.457 1.55-1.072 2.026-0.808 1.412-2.778 5.218-4.307 11.15-0.828 3.308-1.064 5.381-1.177 6.377-1.538 9.966-0.515 27.87 5.293 34.647 1.394 1.626 2.925 2.412 4.68 2.412 3.635 0 4.001-0.918 5.603-6.455 0.391-1.348 0.825-2.852 1.387-4.497 3.035-8.931 7.791-9.537 18.22-10.863l1.379-0.178c2.703-0.269 4.998-0.403 7.747-0.449 2.847 0.049 5.139 0.181 7.759 0.441l1.455 0.186c10.427 1.326 15.188 1.933 18.223 10.863 0.562 1.646 0.996 3.154 1.39 4.507 1.602 5.527 1.967 6.445 5.603 6.445 1.755 0 3.286-0.786 4.678-2.412C94.753 71.856 95.847 54.482 94.455 44.581zM25.713 55.788c-6.97 0-12.625-5.654-12.625-12.625 0-6.97 5.654-12.625 12.625-12.625 6.973 0 12.622 5.655 12.622 12.625C38.335 50.134 32.686 55.788 25.713 55.788zM74.282 30.537c2.505 0 4.544 2.032 4.544 4.544 0 2.511-2.039 4.543-4.544 4.543-2.507 0-4.548-2.032-4.548-4.543C69.734 32.569 71.775 30.537 74.282 30.537zM66.201 47.706c-2.518 0-4.549-2.03-4.549-4.543 0-2.51 2.031-4.541 4.549-4.541 2.505 0 4.539 2.031 4.539 4.541C70.74 45.676 68.706 47.706 66.201 47.706zM74.282 55.788c-2.507 0-4.548-2.038-4.548-4.547 0-2.507 2.041-4.544 4.548-4.544 2.505 0 4.544 2.037 4.544 4.544C78.826 53.75 76.787 55.788 74.282 55.788zM82.355 47.706c-2.504 0-4.541-2.03-4.541-4.543 0-2.51 2.037-4.541 4.541-4.541 2.518 0 4.551 2.031 4.551 4.541C86.906 45.676 84.873 47.706 82.355 47.706z" fill="#ffffff" data-fill-palette-color="accent"></path><path d="M30.981 40.338h-2.446v-2.445c0-1.56-1.265-2.822-2.822-2.822-1.555 0-2.822 1.262-2.822 2.822v2.445h-2.449c-1.56 0-2.825 1.267-2.825 2.825 0 1.562 1.265 2.822 2.825 2.822h2.449v2.446c0 1.56 1.267 2.824 2.822 2.824 1.558 0 2.822-1.264 2.822-2.824v-2.446h2.446c1.558 0 2.825-1.261 2.825-2.822C33.806 41.605 32.539 40.338 30.981 40.338z" fill="#ffffff" data-fill-palette-color="accent"></path></svg></g></svg></g><g></g></svg></g><defs></defs></svg><rect width="395.52" height="162.42000687153833" fill="none" stroke="none" visibility="hidden"></rect></g></svg></g></svg>