<?xml version="1.0" encoding="UTF-8"?>
<svg xmlns="http://www.w3.org/2000/svg" xmlns:xlink="http://www.w3.org/1999/xlink" width="100px" height="41px" viewBox="0 0 100 41" version="1.1">
<defs>
<clipPath id="clip1">
  <path d="M 0.0117188 21.160156 L 99.867188 21.160156 L 99.867188 41 L 0.0117188 41 Z M 0.0117188 21.160156 "/>
</clipPath>
<clipPath id="clip2">
  <path d="M 35.101562 0.0546875 L 64.777344 0.0546875 L 64.777344 19.945312 L 35.101562 19.945312 Z M 35.101562 0.0546875 "/>
</clipPath>
</defs>
<g id="surface1">
<g clip-path="url(#clip1)" clip-rule="nonzero">
<path style=" stroke:none;fill-rule:nonzero;fill:rgb(27.843137%,10.196078%,62.745098%);fill-opacity:1;" d="M 4.011719 21.351562 L 7.027344 21.972656 C 7.179688 22.472656 7.347656 23.078125 7.527344 23.800781 C 7.710938 24.519531 7.898438 25.296875 8.085938 26.132812 C 8.273438 26.96875 8.453125 27.824219 8.628906 28.695312 C 8.800781 29.558594 8.964844 30.378906 9.117188 31.140625 C 9.558594 30.5 10.027344 29.8125 10.53125 29.085938 C 11.03125 28.355469 11.53125 27.644531 12.035156 26.949219 C 12.535156 26.253906 13.011719 25.613281 13.464844 25.023438 C 13.914062 24.433594 14.308594 23.941406 14.644531 23.546875 L 17.519531 24.136719 C 17.460938 25.097656 17.371094 26.167969 17.25 27.347656 C 17.125 28.53125 16.980469 29.757812 16.808594 31.023438 C 16.640625 32.292969 16.464844 33.566406 16.277344 34.839844 C 16.097656 36.113281 15.917969 37.308594 15.742188 38.429688 L 12.667969 37.796875 C 12.90625 36.421875 13.15625 34.921875 13.417969 33.296875 C 13.683594 31.671875 13.917969 30.027344 14.117188 28.363281 C 13.757812 28.882812 13.359375 29.453125 12.921875 30.085938 C 12.480469 30.714844 12.046875 31.34375 11.613281 31.976562 C 11.183594 32.601562 10.765625 33.203125 10.367188 33.777344 C 9.96875 34.351562 9.625 34.84375 9.347656 35.253906 L 7.140625 34.796875 C 7.042969 34.3125 6.925781 33.726562 6.78125 33.039062 C 6.644531 32.351562 6.5 31.636719 6.347656 30.886719 C 6.199219 30.136719 6.050781 29.386719 5.894531 28.636719 C 5.738281 27.882812 5.597656 27.199219 5.472656 26.582031 C 5 28.1875 4.566406 29.792969 4.167969 31.390625 C 3.769531 32.984375 3.410156 34.460938 3.089844 35.820312 L 0.0117188 35.1875 C 0.292969 34.085938 0.601562 32.917969 0.933594 31.675781 C 1.265625 30.429688 1.601562 29.191406 1.949219 27.957031 C 2.292969 26.726562 2.640625 25.542969 2.992188 24.40625 C 3.34375 23.273438 3.6875 22.257812 4.011719 21.351562 Z M 22.609375 32.023438 C 22.523438 32.722656 22.535156 33.363281 22.636719 33.945312 C 22.742188 34.527344 22.929688 35.039062 23.203125 35.484375 C 23.476562 35.929688 23.835938 36.289062 24.273438 36.5625 C 24.714844 36.839844 25.234375 37.011719 25.835938 37.082031 C 26.421875 37.152344 26.96875 37.105469 27.46875 36.945312 C 27.964844 36.78125 28.398438 36.515625 28.769531 36.148438 C 29.136719 35.78125 29.441406 35.328125 29.679688 34.785156 C 29.917969 34.246094 30.078125 33.625 30.164062 32.925781 C 30.246094 32.226562 30.234375 31.578125 30.132812 30.988281 C 30.027344 30.398438 29.835938 29.882812 29.5625 29.441406 C 29.289062 29 28.929688 28.640625 28.484375 28.363281 C 28.039062 28.085938 27.519531 27.914062 26.933594 27.84375 C 26.332031 27.773438 25.785156 27.820312 25.292969 27.992188 C 24.800781 28.164062 24.367188 28.433594 24 28.800781 C 23.628906 29.164062 23.324219 29.621094 23.085938 30.171875 C 22.847656 30.71875 22.691406 31.335938 22.609375 32.023438 Z M 33.464844 33.320312 C 33.320312 34.539062 33.011719 35.589844 32.542969 36.472656 C 32.066406 37.355469 31.480469 38.074219 30.777344 38.621094 C 30.074219 39.171875 29.265625 39.550781 28.359375 39.765625 C 27.453125 39.976562 26.503906 40.019531 25.5 39.902344 C 24.53125 39.785156 23.632812 39.519531 22.808594 39.101562 C 21.984375 38.683594 21.285156 38.121094 20.714844 37.417969 C 20.144531 36.71875 19.730469 35.886719 19.472656 34.914062 C 19.214844 33.945312 19.15625 32.847656 19.300781 31.628906 C 19.449219 30.40625 19.765625 29.355469 20.257812 28.476562 C 20.75 27.597656 21.359375 26.878906 22.085938 26.328125 C 22.808594 25.773438 23.621094 25.390625 24.511719 25.175781 C 25.402344 24.964844 26.324219 24.914062 27.265625 25.027344 C 28.242188 25.144531 29.140625 25.410156 29.964844 25.824219 C 30.789062 26.246094 31.484375 26.808594 32.054688 27.515625 C 32.621094 28.222656 33.035156 29.0625 33.292969 30.03125 C 33.550781 31 33.609375 32.097656 33.464844 33.320312 Z M 39.441406 29.054688 L 39.039062 38.121094 C 39.191406 38.140625 39.367188 38.160156 39.566406 38.171875 C 39.765625 38.191406 40.003906 38.207031 40.277344 38.21875 C 41.890625 38.289062 43.101562 37.933594 43.914062 37.15625 C 44.730469 36.375 45.167969 35.265625 45.230469 33.832031 C 45.296875 32.328125 44.976562 31.171875 44.265625 30.367188 C 43.558594 29.5625 42.398438 29.125 40.789062 29.050781 C 40.566406 29.042969 40.339844 29.035156 40.105469 29.03125 C 39.871094 29.027344 39.648438 29.035156 39.441406 29.054688 Z M 48.558594 33.980469 C 48.503906 35.222656 48.261719 36.296875 47.835938 37.203125 C 47.40625 38.113281 46.824219 38.855469 46.089844 39.429688 C 45.355469 40.003906 44.46875 40.421875 43.4375 40.679688 C 42.40625 40.9375 41.257812 41.039062 39.992188 40.980469 C 39.414062 40.957031 38.738281 40.902344 37.96875 40.820312 C 37.203125 40.738281 36.449219 40.605469 35.710938 40.421875 L 36.332031 26.445312 C 37.082031 26.34375 37.859375 26.28125 38.664062 26.269531 C 39.472656 26.257812 40.164062 26.265625 40.746094 26.289062 C 41.96875 26.34375 43.074219 26.53125 44.0625 26.851562 C 45.046875 27.175781 45.886719 27.648438 46.574219 28.273438 C 47.261719 28.894531 47.78125 29.679688 48.128906 30.621094 C 48.472656 31.5625 48.613281 32.683594 48.558594 33.980469 Z M 51.199219 41.105469 L 51.109375 26.75 L 54.335938 26.726562 L 54.425781 41.085938 Z M 62.78125 40.832031 C 61.996094 40.878906 61.214844 40.898438 60.433594 40.894531 C 59.65625 40.890625 58.839844 40.824219 57.992188 40.695312 L 57.199219 26.789062 C 57.855469 26.628906 58.570312 26.496094 59.351562 26.386719 C 60.132812 26.28125 60.859375 26.207031 61.535156 26.167969 C 62.445312 26.117188 63.285156 26.136719 64.054688 26.222656 C 64.828125 26.308594 65.496094 26.496094 66.0625 26.78125 C 66.632812 27.066406 67.085938 27.460938 67.425781 27.960938 C 67.761719 28.457031 67.953125 29.089844 67.996094 29.847656 C 68.0625 30.992188 67.5625 31.929688 66.5 32.652344 C 67.429688 32.945312 68.074219 33.378906 68.4375 33.953125 C 68.800781 34.527344 69.003906 35.1875 69.046875 35.929688 C 69.132812 37.433594 68.648438 38.597656 67.597656 39.417969 C 66.546875 40.238281 64.941406 40.710938 62.78125 40.832031 Z M 62.808594 34.378906 L 60.785156 34.492188 L 60.996094 38.199219 C 61.230469 38.210938 61.488281 38.21875 61.761719 38.21875 C 62.039062 38.210938 62.34375 38.199219 62.671875 38.183594 C 63.636719 38.128906 64.40625 37.945312 64.980469 37.636719 C 65.554688 37.328125 65.820312 36.800781 65.78125 36.054688 C 65.742188 35.390625 65.46875 34.933594 64.960938 34.679688 C 64.445312 34.425781 63.730469 34.324219 62.808594 34.378906 Z M 60.464844 28.90625 L 60.644531 32.03125 L 62.214844 31.941406 C 63.203125 31.882812 63.90625 31.714844 64.316406 31.4375 C 64.730469 31.160156 64.917969 30.734375 64.886719 30.167969 C 64.855469 29.589844 64.609375 29.195312 64.15625 28.988281 C 63.703125 28.777344 63.050781 28.699219 62.199219 28.746094 C 61.921875 28.761719 61.625 28.78125 61.3125 28.808594 C 60.996094 28.832031 60.714844 28.867188 60.464844 28.90625 Z M 74.003906 32.402344 C 74.097656 33.101562 74.261719 33.71875 74.503906 34.257812 C 74.75 34.796875 75.058594 35.246094 75.433594 35.609375 C 75.808594 35.972656 76.242188 36.230469 76.734375 36.390625 C 77.230469 36.546875 77.777344 36.585938 78.375 36.507812 C 78.964844 36.429688 79.480469 36.25 79.921875 35.96875 C 80.367188 35.6875 80.71875 35.324219 80.988281 34.878906 C 81.257812 34.429688 81.4375 33.914062 81.539062 33.332031 C 81.636719 32.75 81.640625 32.109375 81.546875 31.410156 C 81.457031 30.710938 81.289062 30.085938 81.042969 29.542969 C 80.796875 28.996094 80.484375 28.542969 80.113281 28.183594 C 79.738281 27.820312 79.300781 27.558594 78.800781 27.402344 C 78.300781 27.246094 77.753906 27.203125 77.167969 27.28125 C 76.566406 27.359375 76.050781 27.542969 75.613281 27.828125 C 75.179688 28.117188 74.828125 28.488281 74.558594 28.933594 C 74.292969 29.378906 74.109375 29.894531 74.011719 30.488281 C 73.917969 31.078125 73.914062 31.714844 74.003906 32.402344 Z M 84.84375 30.976562 C 85.003906 32.195312 84.964844 33.289062 84.726562 34.257812 C 84.484375 35.234375 84.089844 36.074219 83.542969 36.777344 C 82.996094 37.484375 82.308594 38.050781 81.480469 38.484375 C 80.65625 38.910156 79.746094 39.191406 78.746094 39.320312 C 77.777344 39.449219 76.839844 39.414062 75.9375 39.210938 C 75.035156 39.007812 74.222656 38.636719 73.496094 38.097656 C 72.773438 37.5625 72.167969 36.855469 71.675781 35.976562 C 71.1875 35.101562 70.863281 34.054688 70.703125 32.835938 C 70.542969 31.613281 70.59375 30.519531 70.855469 29.542969 C 71.117188 28.570312 71.53125 27.726562 72.097656 27.007812 C 72.664062 26.292969 73.351562 25.722656 74.167969 25.292969 C 74.980469 24.867188 75.855469 24.59375 76.800781 24.46875 C 77.773438 24.339844 78.707031 24.378906 79.609375 24.578125 C 80.511719 24.78125 81.324219 25.15625 82.050781 25.699219 C 82.773438 26.246094 83.382812 26.957031 83.871094 27.832031 C 84.359375 28.707031 84.683594 29.753906 84.84375 30.976562 Z M 99.867188 35.175781 L 96.082031 35.960938 C 95.53125 35.257812 94.9375 34.550781 94.304688 33.839844 C 93.675781 33.132812 92.96875 32.417969 92.191406 31.707031 C 92.050781 31.988281 91.882812 32.378906 91.679688 32.871094 C 91.480469 33.363281 91.285156 33.882812 91.09375 34.433594 C 90.902344 34.976562 90.722656 35.5 90.558594 36 C 90.398438 36.5 90.28125 36.890625 90.210938 37.171875 L 86.605469 37.917969 C 86.976562 36.699219 87.433594 35.40625 87.972656 34.039062 C 88.515625 32.671875 89.132812 31.210938 89.828125 29.65625 L 83.917969 23.8125 L 87.746094 23.019531 L 91.378906 26.839844 L 93.152344 21.90625 L 96.753906 21.160156 L 93.703125 28.894531 C 95.136719 30.140625 96.371094 31.304688 97.398438 32.394531 C 98.421875 33.488281 99.246094 34.417969 99.867188 35.175781 Z M 99.867188 35.175781 "/>
</g>
<g clip-path="url(#clip2)" clip-rule="nonzero">
<path style=" stroke:none;fill-rule:nonzero;fill:rgb(27.843137%,10.196078%,62.745098%);fill-opacity:1;" d="M 64.597656 7.9375 C 64.574219 7.867188 64.5625 7.792969 64.558594 7.71875 C 64.5 6.882812 64.339844 6.179688 64.214844 5.734375 C 64.207031 5.703125 64.1875 5.644531 64.171875 5.582031 C 63.535156 3.085938 62.574219 1.738281 62.566406 1.722656 C 62.460938 1.578125 62.398438 1.394531 62.398438 1.210938 C 62.390625 1.109375 62.257812 0 59.941406 0 L 58.445312 0 C 57.410156 0 56.65625 0.226562 56.265625 0.652344 C 56.050781 0.886719 55.71875 0.988281 55.414062 0.910156 C 54.179688 0.597656 52.664062 0.304688 49.925781 0.257812 C 47.214844 0.304688 45.695312 0.597656 44.464844 0.910156 C 44.15625 0.988281 43.824219 0.886719 43.609375 0.652344 C 43.21875 0.226562 42.464844 0 41.433594 0 L 39.933594 0 C 37.617188 0 37.484375 1.109375 37.476562 1.234375 C 37.460938 1.503906 37.324219 1.746094 37.121094 1.902344 C 36.855469 2.371094 36.207031 3.628906 35.703125 5.589844 C 35.429688 6.683594 35.351562 7.367188 35.3125 7.695312 C 34.804688 10.992188 35.144531 16.910156 37.058594 19.148438 C 37.519531 19.6875 38.023438 19.945312 38.601562 19.945312 C 39.800781 19.945312 39.921875 19.644531 40.449219 17.8125 C 40.578125 17.367188 40.722656 16.871094 40.90625 16.328125 C 41.90625 13.375 43.476562 13.175781 46.914062 12.734375 L 47.367188 12.675781 C 48.261719 12.589844 49.015625 12.542969 49.921875 12.527344 C 50.863281 12.542969 51.617188 12.589844 52.480469 12.675781 L 52.960938 12.734375 C 56.398438 13.175781 57.96875 13.375 58.96875 16.328125 C 59.15625 16.871094 59.296875 17.367188 59.429688 17.816406 C 59.957031 19.644531 60.078125 19.945312 61.277344 19.945312 C 61.855469 19.945312 62.359375 19.6875 62.816406 19.148438 C 64.695312 16.953125 65.054688 11.210938 64.597656 7.9375 Z M 41.933594 11.644531 C 39.632812 11.644531 37.769531 9.773438 37.769531 7.46875 C 37.769531 5.167969 39.632812 3.296875 41.933594 3.296875 C 44.230469 3.296875 46.09375 5.167969 46.09375 7.46875 C 46.09375 9.773438 44.230469 11.644531 41.933594 11.644531 Z M 57.945312 3.296875 C 58.773438 3.296875 59.445312 3.96875 59.445312 4.796875 C 59.445312 5.628906 58.773438 6.300781 57.945312 6.300781 C 57.121094 6.300781 56.445312 5.628906 56.445312 4.796875 C 56.445312 3.96875 57.121094 3.296875 57.945312 3.296875 Z M 55.28125 8.972656 C 54.453125 8.972656 53.78125 8.300781 53.78125 7.46875 C 53.78125 6.640625 54.453125 5.96875 55.28125 5.96875 C 56.109375 5.96875 56.777344 6.640625 56.777344 7.46875 C 56.777344 8.300781 56.109375 8.972656 55.28125 8.972656 Z M 57.945312 11.644531 C 57.121094 11.644531 56.445312 10.96875 56.445312 10.140625 C 56.445312 9.3125 57.121094 8.636719 57.945312 8.636719 C 58.773438 8.636719 59.445312 9.3125 59.445312 10.140625 C 59.445312 10.96875 58.773438 11.644531 57.945312 11.644531 Z M 60.609375 8.972656 C 59.78125 8.972656 59.109375 8.300781 59.109375 7.46875 C 59.109375 6.640625 59.78125 5.96875 60.609375 5.96875 C 61.4375 5.96875 62.109375 6.640625 62.109375 7.46875 C 62.109375 8.300781 61.4375 8.972656 60.609375 8.972656 Z M 60.609375 8.972656 "/>
</g>
<path style=" stroke:none;fill-rule:nonzero;fill:rgb(27.843137%,10.196078%,62.745098%);fill-opacity:1;" d="M 43.667969 6.535156 L 42.863281 6.535156 L 42.863281 5.726562 C 42.863281 5.210938 42.445312 4.796875 41.933594 4.796875 C 41.417969 4.796875 41 5.210938 41 5.726562 L 41 6.535156 L 40.195312 6.535156 C 39.679688 6.535156 39.261719 6.953125 39.261719 7.46875 C 39.261719 7.984375 39.679688 8.402344 40.195312 8.402344 L 41 8.402344 L 41 9.210938 C 41 9.726562 41.417969 10.144531 41.933594 10.144531 C 42.445312 10.144531 42.863281 9.726562 42.863281 9.210938 L 42.863281 8.402344 L 43.667969 8.402344 C 44.183594 8.402344 44.601562 7.984375 44.601562 7.46875 C 44.601562 6.953125 44.183594 6.535156 43.667969 6.535156 Z M 43.667969 6.535156 "/>
</g>
</svg>
